<svg width="123" height="42" viewBox="0 0 123 42" fill="none" xmlns="http://www.w3.org/2000/svg">
<path d="M28.8789 11V3H31.7305C32.3529 3 32.8685 3.11328 33.2773 3.33984C33.6862 3.56641 33.9922 3.8763 34.1953 4.26953C34.3984 4.66016 34.5 5.10026 34.5 5.58984C34.5 6.08203 34.3971 6.52474 34.1914 6.91797C33.9883 7.30859 33.681 7.61849 33.2695 7.84766C32.8607 8.07422 32.3464 8.1875 31.7266 8.1875H29.7656V7.16406H31.6172C32.0104 7.16406 32.3294 7.09635 32.5742 6.96094C32.819 6.82292 32.9987 6.63542 33.1133 6.39844C33.2279 6.16146 33.2852 5.89193 33.2852 5.58984C33.2852 5.28776 33.2279 5.01953 33.1133 4.78516C32.9987 4.55078 32.8177 4.36719 32.5703 4.23438C32.3255 4.10156 32.0026 4.03516 31.6016 4.03516H30.0859V11H28.8789ZM38.2734 11.1211C37.7109 11.1211 37.2201 10.9922 36.8008 10.7344C36.3815 10.4766 36.056 10.1159 35.8242 9.65234C35.5924 9.1888 35.4766 8.64714 35.4766 8.02734C35.4766 7.40495 35.5924 6.86068 35.8242 6.39453C36.056 5.92839 36.3815 5.56641 36.8008 5.30859C37.2201 5.05078 37.7109 4.92188 38.2734 4.92188C38.8359 4.92188 39.3268 5.05078 39.7461 5.30859C40.1654 5.56641 40.4909 5.92839 40.7227 6.39453C40.9544 6.86068 41.0703 7.40495 41.0703 8.02734C41.0703 8.64714 40.9544 9.1888 40.7227 9.65234C40.4909 10.1159 40.1654 10.4766 39.7461 10.7344C39.3268 10.9922 38.8359 11.1211 38.2734 11.1211ZM38.2773 10.1406C38.6419 10.1406 38.944 10.0443 39.1836 9.85156C39.4232 9.65885 39.6003 9.40234 39.7148 9.08203C39.832 8.76172 39.8906 8.40885 39.8906 8.02344C39.8906 7.64062 39.832 7.28906 39.7148 6.96875C39.6003 6.64583 39.4232 6.38672 39.1836 6.19141C38.944 5.99609 38.6419 5.89844 38.2773 5.89844C37.9102 5.89844 37.6055 5.99609 37.3633 6.19141C37.1237 6.38672 36.9453 6.64583 36.8281 6.96875C36.7135 7.28906 36.6563 7.64062 36.6563 8.02344C36.6563 8.40885 36.7135 8.76172 36.8281 9.08203C36.9453 9.40234 37.1237 9.65885 37.3633 9.85156C37.6055 10.0443 37.9102 10.1406 38.2773 10.1406ZM43.4922 11L41.7266 5H42.9336L44.1094 9.40625H44.168L45.3477 5H46.5547L47.7266 9.38672H47.7852L48.9531 5H50.1602L48.3984 11H47.207L45.9883 6.66797H45.8984L44.6797 11H43.4922ZM53.6719 11.1211C53.0807 11.1211 52.5716 10.9948 52.1445 10.7422C51.7201 10.487 51.3919 10.1289 51.1602 9.66797C50.931 9.20443 50.8164 8.66146 50.8164 8.03906C50.8164 7.42448 50.931 6.88281 51.1602 6.41406C51.3919 5.94531 51.7148 5.57943 52.1289 5.31641C52.5456 5.05339 53.0326 4.92188 53.5898 4.92188C53.9284 4.92188 54.2565 4.97786 54.5742 5.08984C54.8919 5.20182 55.1771 5.3776 55.4297 5.61719C55.6823 5.85677 55.8815 6.16797 56.0273 6.55078C56.1732 6.93099 56.2461 7.39323 56.2461 7.9375V8.35156H51.4766V7.47656H55.1016C55.1016 7.16927 55.0391 6.89714 54.9141 6.66016C54.7891 6.42057 54.6133 6.23177 54.3867 6.09375C54.1628 5.95573 53.8997 5.88672 53.5977 5.88672C53.2695 5.88672 52.9831 5.96745 52.7383 6.12891C52.4961 6.28776 52.3086 6.49609 52.1758 6.75391C52.0456 7.00911 51.9805 7.28646 51.9805 7.58594V8.26953C51.9805 8.67057 52.0508 9.01172 52.1914 9.29297C52.3346 9.57422 52.5339 9.78906 52.7891 9.9375C53.0443 10.0833 53.3424 10.1562 53.6836 10.1562C53.9049 10.1562 54.1068 10.125 54.2891 10.0625C54.4714 9.9974 54.6289 9.90104 54.7617 9.77344C54.8945 9.64583 54.9961 9.48828 55.0664 9.30078L56.1719 9.5C56.0833 9.82552 55.9245 10.1107 55.6953 10.3555C55.4688 10.5977 55.1836 10.7865 54.8398 10.9219C54.4987 11.0547 54.1094 11.1211 53.6719 11.1211ZM57.542 11V5H58.6709V5.95312H58.7334C58.8428 5.63021 59.0355 5.3763 59.3115 5.19141C59.5902 5.00391 59.9053 4.91016 60.2568 4.91016C60.3298 4.91016 60.4157 4.91276 60.5146 4.91797C60.6162 4.92318 60.6956 4.92969 60.7529 4.9375V6.05469C60.7061 6.04167 60.6227 6.02734 60.5029 6.01172C60.3831 5.99349 60.2633 5.98437 60.1436 5.98437C59.8675 5.98437 59.6214 6.04297 59.4053 6.16016C59.1917 6.27474 59.0225 6.4349 58.8975 6.64062C58.7725 6.84375 58.71 7.07552 58.71 7.33594V11H57.542ZM64.1348 11.1211C63.5436 11.1211 63.0345 10.9948 62.6074 10.7422C62.1829 10.487 61.8548 10.1289 61.623 9.66797C61.3939 9.20443 61.2793 8.66146 61.2793 8.03906C61.2793 7.42448 61.3939 6.88281 61.623 6.41406C61.8548 5.94531 62.1777 5.57943 62.5918 5.31641C63.0085 5.05339 63.4954 4.92188 64.0527 4.92188C64.3913 4.92188 64.7194 4.97786 65.0371 5.08984C65.3548 5.20182 65.64 5.3776 65.8926 5.61719C66.1452 5.85677 66.3444 6.16797 66.4902 6.55078C66.6361 6.93099 66.709 7.39323 66.709 7.9375V8.35156H61.9395V7.47656H65.5645C65.5645 7.16927 65.502 6.89714 65.377 6.66016C65.252 6.42057 65.0762 6.23177 64.8496 6.09375C64.6257 5.95573 64.3626 5.88672 64.0605 5.88672C63.7324 5.88672 63.446 5.96745 63.2012 6.12891C62.959 6.28776 62.7715 6.49609 62.6387 6.75391C62.5085 7.00911 62.4434 7.28646 62.4434 7.58594V8.26953C62.4434 8.67057 62.5137 9.01172 62.6543 9.29297C62.7975 9.57422 62.9967 9.78906 63.252 9.9375C63.5072 10.0833 63.8053 10.1562 64.1465 10.1562C64.3678 10.1562 64.5697 10.125 64.752 10.0625C64.9342 9.9974 65.0918 9.90104 65.2246 9.77344C65.3574 9.64583 65.459 9.48828 65.5293 9.30078L66.6348 9.5C66.5462 9.82552 66.3874 10.1107 66.1582 10.3555C65.9316 10.5977 65.6465 10.7865 65.3027 10.9219C64.9616 11.0547 64.5723 11.1211 64.1348 11.1211ZM70.251 11.1172C69.7666 11.1172 69.3343 10.9935 68.9541 10.7461C68.5765 10.4961 68.2796 10.1406 68.0635 9.67969C67.8499 9.21615 67.7432 8.66016 67.7432 8.01172C67.7432 7.36328 67.8512 6.80859 68.0674 6.34766C68.2861 5.88672 68.5856 5.53385 68.9658 5.28906C69.346 5.04427 69.777 4.92188 70.2588 4.92188C70.6312 4.92188 70.9307 4.98438 71.1572 5.10937C71.3864 5.23177 71.5635 5.375 71.6885 5.53906C71.8161 5.70312 71.915 5.84766 71.9854 5.97266H72.0557V3H73.2236V11H72.083V10.0664H71.9854C71.915 10.194 71.8135 10.3398 71.6807 10.5039C71.5505 10.668 71.3708 10.8112 71.1416 10.9336C70.9124 11.056 70.6156 11.1172 70.251 11.1172ZM70.5088 10.1211C70.8447 10.1211 71.1286 10.0326 71.3604 9.85547C71.5947 9.67578 71.7718 9.42708 71.8916 9.10938C72.014 8.79167 72.0752 8.42187 72.0752 8C72.0752 7.58333 72.0153 7.21875 71.8955 6.90625C71.7757 6.59375 71.5999 6.35026 71.3682 6.17578C71.1364 6.0013 70.8499 5.91406 70.5088 5.91406C70.1572 5.91406 69.8643 6.00521 69.6299 6.1875C69.3955 6.36979 69.2184 6.61849 69.0986 6.93359C68.9814 7.2487 68.9229 7.60417 68.9229 8C68.9229 8.40104 68.9827 8.76172 69.1025 9.08203C69.2223 9.40234 69.3994 9.65625 69.6338 9.84375C69.8708 10.0286 70.1624 10.1211 70.5088 10.1211ZM77.8955 11V3H79.0635V5.97266H79.1338C79.2015 5.84766 79.2992 5.70312 79.4268 5.53906C79.5544 5.375 79.7314 5.23177 79.958 5.10937C80.1846 4.98438 80.484 4.92188 80.8564 4.92188C81.3408 4.92188 81.7731 5.04427 82.1533 5.28906C82.5335 5.53385 82.8317 5.88672 83.0479 6.34766C83.2666 6.80859 83.376 7.36328 83.376 8.01172C83.376 8.66016 83.2679 9.21615 83.0518 9.67969C82.8356 10.1406 82.5387 10.4961 82.1611 10.7461C81.7835 10.9935 81.3525 11.1172 80.8682 11.1172C80.5036 11.1172 80.2054 11.056 79.9736 10.9336C79.7445 10.8112 79.5648 10.668 79.4346 10.5039C79.3044 10.3398 79.2041 10.194 79.1338 10.0664H79.0361V11H77.8955ZM79.04 8C79.04 8.42187 79.1012 8.79167 79.2236 9.10938C79.346 9.42708 79.5231 9.67578 79.7549 9.85547C79.9867 10.0326 80.2705 10.1211 80.6064 10.1211C80.9554 10.1211 81.2471 10.0286 81.4814 9.84375C81.7158 9.65625 81.8929 9.40234 82.0127 9.08203C82.1351 8.76172 82.1963 8.40104 82.1963 8C82.1963 7.60417 82.1364 7.2487 82.0166 6.93359C81.8994 6.61849 81.7223 6.36979 81.4854 6.1875C81.251 6.00521 80.958 5.91406 80.6064 5.91406C80.2679 5.91406 79.9814 6.0013 79.7471 6.17578C79.5153 6.35026 79.3395 6.59375 79.2197 6.90625C79.0999 7.21875 79.04 7.58333 79.04 8ZM85.2217 13.25C85.0472 13.25 84.8883 13.2357 84.7451 13.207C84.6019 13.181 84.4951 13.1523 84.4248 13.1211L84.7061 12.1641C84.9196 12.2214 85.1097 12.2461 85.2764 12.2383C85.443 12.2305 85.5902 12.168 85.7178 12.0508C85.848 11.9336 85.9626 11.7422 86.0615 11.4766L86.2061 11.0781L84.0107 5H85.2607L86.7803 9.65625H86.8428L88.3623 5H89.6162L87.1436 11.8008C87.029 12.1133 86.8831 12.3776 86.7061 12.5938C86.529 12.8125 86.318 12.9766 86.0732 13.0859C85.8285 13.1953 85.5446 13.25 85.2217 13.25Z" fill="black"/>
<path d="M9.46 26.39C9.36 26.55 9.25333 26.67 9.14 26.75C9.03333 26.83 8.89333 26.87 8.72 26.87C8.56667 26.87 8.4 26.8233 8.22 26.73C8.04667 26.63 7.84667 26.52 7.62 26.4C7.4 26.28 7.14667 26.1733 6.86 26.08C6.57333 25.98 6.24667 25.93 5.88 25.93C5.24667 25.93 4.77333 26.0667 4.46 26.34C4.15333 26.6067 4 26.97 4 27.43C4 27.7233 4.09333 27.9667 4.28 28.16C4.46667 28.3533 4.71 28.52 5.01 28.66C5.31667 28.8 5.66333 28.93 6.05 29.05C6.44333 29.1633 6.84333 29.2933 7.25 29.44C7.65667 29.58 8.05333 29.7467 8.44 29.94C8.83333 30.1333 9.18 30.38 9.48 30.68C9.78667 30.98 10.0333 31.3467 10.22 31.78C10.4067 32.2067 10.5 32.7233 10.5 33.33C10.5 34.0033 10.3833 34.6333 10.15 35.22C9.91667 35.8067 9.57667 36.32 9.13 36.76C8.69 37.1933 8.14333 37.5367 7.49 37.79C6.84333 38.0367 6.10667 38.16 5.28 38.16C4.82667 38.16 4.36333 38.1133 3.89 38.02C3.42333 37.9267 2.97 37.7967 2.53 37.63C2.09 37.4567 1.67667 37.2533 1.29 37.02C0.903333 36.7867 0.566667 36.5267 0.28 36.24L1.28 34.66C1.36 34.5467 1.46333 34.4533 1.59 34.38C1.72333 34.3 1.86667 34.26 2.02 34.26C2.22 34.26 2.42 34.3233 2.62 34.45C2.82667 34.5767 3.05667 34.7167 3.31 34.87C3.57 35.0233 3.86667 35.1633 4.2 35.29C4.53333 35.4167 4.92667 35.48 5.38 35.48C5.99333 35.48 6.47 35.3467 6.81 35.08C7.15 34.8067 7.32 34.3767 7.32 33.79C7.32 33.45 7.22667 33.1733 7.04 32.96C6.85333 32.7467 6.60667 32.57 6.3 32.43C6 32.29 5.65667 32.1667 5.27 32.06C4.88333 31.9533 4.48667 31.8367 4.08 31.71C3.67333 31.5767 3.27667 31.4167 2.89 31.23C2.50333 31.0367 2.15667 30.7867 1.85 30.48C1.55 30.1667 1.30667 29.78 1.12 29.32C0.933333 28.8533 0.84 28.28 0.84 27.6C0.84 27.0533 0.95 26.52 1.17 26C1.39 25.48 1.71333 25.0167 2.14 24.61C2.56667 24.2033 3.09 23.88 3.71 23.64C4.33 23.3933 5.04 23.27 5.84 23.27C6.28667 23.27 6.72 23.3067 7.14 23.38C7.56667 23.4467 7.97 23.55 8.35 23.69C8.73 23.8233 9.08333 23.9867 9.41 24.18C9.74333 24.3667 10.04 24.58 10.3 24.82L9.46 26.39ZM25.7342 30.92C25.7342 32.0133 25.5709 33.0067 25.2442 33.9C24.9176 34.7867 24.4576 35.5467 23.8642 36.18C23.2709 36.8067 22.5576 37.2933 21.7242 37.64C20.8976 37.98 19.9842 38.15 18.9842 38.15C17.9842 38.15 17.0709 37.98 16.2442 37.64C15.4176 37.2933 14.7076 36.8067 14.1142 36.18C13.5209 35.5467 13.0609 34.7867 12.7342 33.9C12.4076 33.0067 12.2442 32.0133 12.2442 30.92C12.2442 29.8333 12.4076 28.8467 12.7342 27.96C13.0609 27.0667 13.5209 26.3067 14.1142 25.68C14.7076 25.0467 15.4176 24.5567 16.2442 24.21C17.0709 23.8633 17.9842 23.69 18.9842 23.69C19.9842 23.69 20.8976 23.8633 21.7242 24.21C22.5576 24.55 23.2709 25.0367 23.8642 25.67C24.4576 26.3033 24.9176 27.0667 25.2442 27.96C25.5709 28.8467 25.7342 29.8333 25.7342 30.92ZM24.6742 30.92C24.6742 29.9333 24.5376 29.0467 24.2642 28.26C23.9909 27.4733 23.6042 26.8067 23.1042 26.26C22.6042 25.7133 22.0042 25.2967 21.3042 25.01C20.6042 24.7167 19.8309 24.57 18.9842 24.57C18.1442 24.57 17.3742 24.7167 16.6742 25.01C15.9742 25.2967 15.3709 25.7133 14.8642 26.26C14.3642 26.8067 13.9742 27.4733 13.6942 28.26C13.4209 29.0467 13.2842 29.9333 13.2842 30.92C13.2842 31.9133 13.4209 32.8033 13.6942 33.59C13.9742 34.37 14.3642 35.0333 14.8642 35.58C15.3709 36.1267 15.9742 36.5433 16.6742 36.83C17.3742 37.1167 18.1442 37.26 18.9842 37.26C19.8309 37.26 20.6042 37.1167 21.3042 36.83C22.0042 36.5433 22.6042 36.1267 23.1042 35.58C23.6042 35.0333 23.9909 34.37 24.2642 33.59C24.5376 32.8033 24.6742 31.9133 24.6742 30.92ZM30.0145 24.7V30.65H36.4645V31.5H30.0145V38H28.9845V23.85H37.4645V24.7H30.0145ZM49.4736 24.72H44.5036V38H43.4736V24.72H38.4736V23.85H49.4736V24.72Z" fill="black"/>
<path d="M66.6261 26.11H62.5261V38H59.1461V26.11H55.0461V23.43H66.6261V26.11ZM73.0836 30.28C73.5436 30.28 73.9336 30.2233 74.2536 30.11C74.5803 29.99 74.8469 29.8267 75.0536 29.62C75.2603 29.4133 75.4103 29.1733 75.5036 28.9C75.5969 28.62 75.6436 28.32 75.6436 28C75.6436 27.36 75.4336 26.86 75.0136 26.5C74.6003 26.14 73.9569 25.96 73.0836 25.96H71.7236V30.28H73.0836ZM80.2636 38H77.2036C76.6369 38 76.2303 37.7867 75.9836 37.36L73.5636 33.13C73.4503 32.95 73.3236 32.82 73.1836 32.74C73.0436 32.6533 72.8436 32.61 72.5836 32.61H71.7236V38H68.3436V23.43H73.0836C74.1369 23.43 75.0336 23.54 75.7736 23.76C76.5203 23.9733 77.1269 24.2733 77.5936 24.66C78.0669 25.0467 78.4103 25.5033 78.6236 26.03C78.8369 26.5567 78.9436 27.13 78.9436 27.75C78.9436 28.2233 78.8803 28.67 78.7536 29.09C78.6269 29.51 78.4403 29.9 78.1936 30.26C77.9469 30.6133 77.6403 30.93 77.2736 31.21C76.9136 31.49 76.4969 31.72 76.0236 31.9C76.2436 32.0133 76.4503 32.1567 76.6436 32.33C76.8369 32.4967 77.0103 32.6967 77.1636 32.93L80.2636 38ZM89.1881 32.43L87.8381 28.44C87.7381 28.1867 87.6315 27.89 87.5181 27.55C87.4048 27.2033 87.2915 26.83 87.1781 26.43C87.0781 26.8367 86.9715 27.2133 86.8581 27.56C86.7448 27.9067 86.6381 28.2067 86.5381 28.46L85.1981 32.43H89.1881ZM94.5581 38H91.9381C91.6448 38 91.4081 37.9333 91.2281 37.8C91.0481 37.66 90.9115 37.4833 90.8181 37.27L89.9581 34.73H84.4181L83.5581 37.27C83.4848 37.4567 83.3515 37.6267 83.1581 37.78C82.9715 37.9267 82.7381 38 82.4581 38H79.8181L85.4581 23.43H88.9181L94.5581 38ZM99.1069 38H95.7069V23.43H99.1069V38ZM110.698 35.3V38H101.918V23.43H105.298V35.3H110.698ZM120.476 26.39C120.376 26.55 120.269 26.67 120.156 26.75C120.049 26.83 119.909 26.87 119.736 26.87C119.582 26.87 119.416 26.8233 119.236 26.73C119.062 26.63 118.862 26.52 118.636 26.4C118.416 26.28 118.162 26.1733 117.876 26.08C117.589 25.98 117.262 25.93 116.896 25.93C116.262 25.93 115.789 26.0667 115.476 26.34C115.169 26.6067 115.016 26.97 115.016 27.43C115.016 27.7233 115.109 27.9667 115.296 28.16C115.482 28.3533 115.726 28.52 116.026 28.66C116.332 28.8 116.679 28.93 117.066 29.05C117.459 29.1633 117.859 29.2933 118.266 29.44C118.672 29.58 119.069 29.7467 119.456 29.94C119.849 30.1333 120.196 30.38 120.496 30.68C120.802 30.98 121.049 31.3467 121.236 31.78C121.422 32.2067 121.516 32.7233 121.516 33.33C121.516 34.0033 121.399 34.6333 121.166 35.22C120.932 35.8067 120.592 36.32 120.146 36.76C119.706 37.1933 119.159 37.5367 118.506 37.79C117.859 38.0367 117.122 38.16 116.296 38.16C115.842 38.16 115.379 38.1133 114.906 38.02C114.439 37.9267 113.986 37.7967 113.546 37.63C113.106 37.4567 112.692 37.2533 112.306 37.02C111.919 36.7867 111.582 36.5267 111.296 36.24L112.296 34.66C112.376 34.5467 112.479 34.4533 112.606 34.38C112.739 34.3 112.882 34.26 113.036 34.26C113.236 34.26 113.436 34.3233 113.636 34.45C113.842 34.5767 114.072 34.7167 114.326 34.87C114.586 35.0233 114.882 35.1633 115.216 35.29C115.549 35.4167 115.942 35.48 116.396 35.48C117.009 35.48 117.486 35.3467 117.826 35.08C118.166 34.8067 118.336 34.3767 118.336 33.79C118.336 33.45 118.242 33.1733 118.056 32.96C117.869 32.7467 117.622 32.57 117.316 32.43C117.016 32.29 116.672 32.1667 116.286 32.06C115.899 31.9533 115.502 31.8367 115.096 31.71C114.689 31.5767 114.292 31.4167 113.906 31.23C113.519 31.0367 113.172 30.7867 112.866 30.48C112.566 30.1667 112.322 29.78 112.136 29.32C111.949 28.8533 111.856 28.28 111.856 27.6C111.856 27.0533 111.966 26.52 112.186 26C112.406 25.48 112.729 25.0167 113.156 24.61C113.582 24.2033 114.106 23.88 114.726 23.64C115.346 23.3933 116.056 23.27 116.856 23.27C117.302 23.27 117.736 23.3067 118.156 23.38C118.582 23.4467 118.986 23.55 119.366 23.69C119.746 23.8233 120.099 23.9867 120.426 24.18C120.759 24.3667 121.056 24.58 121.316 24.82L120.476 26.39Z" fill="url(#paint0_linear_9635_4272)"/>
<defs>
<linearGradient id="paint0_linear_9635_4272" x1="55.5848" y1="24.9474" x2="122.754" y2="35.551" gradientUnits="userSpaceOnUse">
<stop/>
<stop offset="0.265" stop-color="#2737A4"/>
<stop offset="1" stop-color="#D90101"/>
</linearGradient>
</defs>
</svg>
