<svg width="152" height="38" viewBox="0 0 152 38" fill="none" xmlns="http://www.w3.org/2000/svg">
<rect width="151.524" height="37.6696" transform="translate(0.113281 0.289062)" fill="white"/>
<path d="M18.4625 17.5406C18.3587 17.7066 18.248 17.8312 18.1304 17.9142C18.0197 17.9972 17.8744 18.0387 17.6945 18.0387C17.5353 18.0387 17.3624 17.9903 17.1756 17.8934C16.9957 17.7896 16.7881 17.6755 16.5528 17.5509C16.3245 17.4264 16.0616 17.3157 15.7641 17.2188C15.4666 17.115 15.1276 17.0632 14.747 17.0632C14.0897 17.0632 13.5985 17.205 13.2733 17.4887C12.955 17.7654 12.7959 18.1425 12.7959 18.6199C12.7959 18.9243 12.8927 19.1769 13.0865 19.3775C13.2802 19.5782 13.5327 19.7511 13.8441 19.8964C14.1624 20.0417 14.5221 20.1767 14.9234 20.3012C15.3317 20.4188 15.7468 20.5537 16.1688 20.706C16.5909 20.8513 17.0026 21.0242 17.4039 21.2249C17.8121 21.4255 18.1719 21.6815 18.4832 21.9929C18.8015 22.3042 19.0575 22.6848 19.2512 23.1345C19.445 23.5773 19.5418 24.1135 19.5418 24.7431C19.5418 25.442 19.4207 26.0958 19.1786 26.7047C18.9364 27.3135 18.5835 27.8463 18.12 28.3029C17.6633 28.7527 17.096 29.109 16.4179 29.3719C15.7468 29.6279 14.9823 29.7559 14.1243 29.7559C13.6538 29.7559 13.173 29.7075 12.6817 29.6106C12.1974 29.5137 11.7269 29.3788 11.2703 29.2058C10.8136 29.026 10.3846 28.8149 9.98334 28.5728C9.58204 28.3306 9.23264 28.0608 8.93513 27.7633L9.97296 26.1235C10.056 26.0058 10.1632 25.909 10.2947 25.8329C10.4331 25.7498 10.5818 25.7083 10.741 25.7083C10.9485 25.7083 11.1561 25.7741 11.3637 25.9055C11.5782 26.037 11.8169 26.1823 12.0798 26.3414C12.3496 26.5005 12.6575 26.6458 13.0034 26.7773C13.3494 26.9088 13.7576 26.9745 14.2281 26.9745C14.8646 26.9745 15.3593 26.8361 15.7122 26.5594C16.0651 26.2757 16.2415 25.8294 16.2415 25.2205C16.2415 24.8677 16.1446 24.5806 15.9509 24.3591C15.7572 24.1377 15.5012 23.9544 15.1829 23.8091C14.8716 23.6638 14.5152 23.5358 14.1139 23.4251C13.7126 23.3144 13.301 23.1933 12.8789 23.0618C12.4569 22.9235 12.0452 22.7574 11.6439 22.5637C11.2426 22.363 10.8828 22.1036 10.5645 21.7853C10.2532 21.4601 10.0006 21.0588 9.80691 20.5814C9.61318 20.0971 9.51631 19.5021 9.51631 18.7963C9.51631 18.229 9.63048 17.6755 9.8588 17.1358C10.0871 16.5961 10.4227 16.1153 10.8655 15.6932C11.3083 15.2712 11.8514 14.9356 12.4949 14.6865C13.1384 14.4305 13.8752 14.3025 14.7055 14.3025C15.1691 14.3025 15.6188 14.3406 16.0547 14.4167C16.4975 14.4859 16.9161 14.5931 17.3105 14.7384C17.7048 14.8768 18.0716 15.0463 18.4106 15.2469C18.7565 15.4407 19.0644 15.6621 19.3343 15.9112L18.4625 17.5406ZM35.3525 22.242C35.3525 23.3767 35.1829 24.4076 34.8439 25.3347C34.5049 26.2549 34.0275 27.0437 33.4117 27.701C32.7959 28.3514 32.0556 28.8564 31.1907 29.2162C30.3328 29.5691 29.3849 29.7455 28.3471 29.7455C27.3092 29.7455 26.3613 29.5691 25.5034 29.2162C24.6454 28.8564 23.9086 28.3514 23.2928 27.701C22.677 27.0437 22.1996 26.2549 21.8606 25.3347C21.5215 24.4076 21.352 23.3767 21.352 22.242C21.352 21.1142 21.5215 20.0902 21.8606 19.17C22.1996 18.2428 22.677 17.4541 23.2928 16.8037C23.9086 16.1464 24.6454 15.6379 25.5034 15.2781C26.3613 14.9183 27.3092 14.7384 28.3471 14.7384C29.3849 14.7384 30.3328 14.9183 31.1907 15.2781C32.0556 15.6309 32.7959 16.136 33.4117 16.7933C34.0275 17.4506 34.5049 18.2428 34.8439 19.17C35.1829 20.0902 35.3525 21.1142 35.3525 22.242ZM34.2523 22.242C34.2523 21.218 34.1105 20.2977 33.8268 19.4813C33.5432 18.6649 33.1419 17.973 32.6229 17.4056C32.104 16.8383 31.4813 16.4059 30.7548 16.1083C30.0284 15.8039 29.2258 15.6517 28.3471 15.6517C27.4753 15.6517 26.6761 15.8039 25.9497 16.1083C25.2232 16.4059 24.597 16.8383 24.0712 17.4056C23.5522 17.973 23.1475 18.6649 22.8569 19.4813C22.5732 20.2977 22.4314 21.218 22.4314 22.242C22.4314 23.2729 22.5732 24.1966 22.8569 25.013C23.1475 25.8225 23.5522 26.5109 24.0712 27.0783C24.597 27.6456 25.2232 28.0781 25.9497 28.3756C26.6761 28.6731 27.4753 28.8218 28.3471 28.8218C29.2258 28.8218 30.0284 28.6731 30.7548 28.3756C31.4813 28.0781 32.104 27.6456 32.6229 27.0783C33.1419 26.5109 33.5432 25.8225 33.8268 25.013C34.1105 24.1966 34.2523 23.2729 34.2523 22.242ZM39.7947 15.7866V21.9617H46.4888V22.8439H39.7947V29.5898H38.7258V14.9045H47.5266V15.7866H39.7947ZM59.9901 15.8074H54.832V29.5898H53.763V15.8074H48.5738V14.9045H59.9901V15.8074Z" fill="black"/>
<path d="M77.7916 17.25H73.5364V29.5898H70.0285V17.25H65.7734V14.4686H77.7916V17.25ZM84.4934 21.5777C84.9708 21.5777 85.3755 21.5189 85.7077 21.4013C86.0467 21.2768 86.3234 21.1073 86.5379 20.8928C86.7524 20.6783 86.9081 20.4292 87.005 20.1455C87.1018 19.8549 87.1502 19.5436 87.1502 19.2115C87.1502 18.5473 86.9323 18.0283 86.4964 17.6547C86.0674 17.2811 85.3998 17.0943 84.4934 17.0943H83.0819V21.5777H84.4934ZM91.9451 29.5898H88.7693C88.1812 29.5898 87.7591 29.3684 87.5031 28.9256L84.9915 24.5356C84.8739 24.3488 84.7425 24.2138 84.5972 24.1308C84.4519 24.0409 84.2443 23.9959 83.9745 23.9959H83.0819V29.5898H79.574V14.4686H84.4934C85.5866 14.4686 86.5172 14.5827 87.2852 14.811C88.0601 15.0325 88.6897 15.3438 89.174 15.7451C89.6653 16.1464 90.0216 16.6203 90.243 17.1669C90.4644 17.7135 90.5751 18.3086 90.5751 18.952C90.5751 19.4433 90.5094 19.9068 90.3779 20.3427C90.2465 20.7786 90.0527 21.1834 89.7967 21.557C89.5407 21.9237 89.2225 22.2523 88.8419 22.5429C88.4683 22.8335 88.0359 23.0722 87.5446 23.259C87.7729 23.3767 87.9874 23.5254 88.1881 23.7053C88.3887 23.8783 88.5686 24.0858 88.7278 24.328L91.9451 29.5898ZM101.207 23.8091L99.8062 19.6681C99.7024 19.4052 99.5917 19.0973 99.4741 18.7444C99.3565 18.3847 99.2388 17.9972 99.1212 17.5821C99.0174 18.0041 98.9067 18.395 98.7891 18.7548C98.6715 19.1146 98.5608 19.426 98.457 19.6889L97.0663 23.8091H101.207ZM106.78 29.5898H104.061C103.757 29.5898 103.511 29.5207 103.324 29.3823C103.138 29.237 102.996 29.0536 102.899 28.8322L102.006 26.1961H96.2568L95.3642 28.8322C95.2881 29.026 95.1498 29.2024 94.9491 29.3615C94.7554 29.5137 94.5132 29.5898 94.2226 29.5898H91.4827L97.3361 14.4686H100.927L106.78 29.5898ZM111.501 29.5898H107.973V14.4686H111.501V29.5898ZM123.531 26.7877V29.5898H114.419V14.4686H117.926V26.7877H123.531ZM133.679 17.5406C133.575 17.7066 133.464 17.8312 133.346 17.9142C133.236 17.9972 133.09 18.0387 132.911 18.0387C132.751 18.0387 132.578 17.9903 132.392 17.8934C132.212 17.7896 132.004 17.6755 131.769 17.5509C131.541 17.4264 131.278 17.3157 130.98 17.2188C130.683 17.115 130.344 17.0632 129.963 17.0632C129.306 17.0632 128.815 17.205 128.489 17.4887C128.171 17.7654 128.012 18.1425 128.012 18.6199C128.012 18.9243 128.109 19.1769 128.303 19.3775C128.496 19.5782 128.749 19.7511 129.06 19.8964C129.378 20.0417 129.738 20.1767 130.14 20.3012C130.548 20.4188 130.963 20.5537 131.385 20.706C131.807 20.8513 132.219 21.0242 132.62 21.2249C133.028 21.4255 133.388 21.6815 133.699 21.9929C134.018 22.3042 134.274 22.6848 134.467 23.1345C134.661 23.5773 134.758 24.1135 134.758 24.7431C134.758 25.442 134.637 26.0958 134.395 26.7047C134.153 27.3135 133.8 27.8463 133.336 28.3029C132.879 28.7527 132.312 29.109 131.634 29.3719C130.963 29.6279 130.198 29.7559 129.34 29.7559C128.87 29.7559 128.389 29.7075 127.898 29.6106C127.414 29.5137 126.943 29.3788 126.486 29.2058C126.03 29.026 125.601 28.8149 125.199 28.5728C124.798 28.3306 124.449 28.0608 124.151 27.7633L125.189 26.1235C125.272 26.0058 125.379 25.909 125.511 25.8329C125.649 25.7498 125.798 25.7083 125.957 25.7083C126.165 25.7083 126.372 25.7741 126.58 25.9055C126.794 26.037 127.033 26.1823 127.296 26.3414C127.566 26.5005 127.874 26.6458 128.22 26.7773C128.566 26.9088 128.974 26.9745 129.444 26.9745C130.081 26.9745 130.575 26.8361 130.928 26.5594C131.281 26.2757 131.458 25.8294 131.458 25.2205C131.458 24.8677 131.361 24.5806 131.167 24.3591C130.973 24.1377 130.717 23.9544 130.399 23.8091C130.088 23.6638 129.731 23.5358 129.33 23.4251C128.929 23.3144 128.517 23.1933 128.095 23.0618C127.673 22.9235 127.261 22.7574 126.86 22.5637C126.459 22.363 126.099 22.1036 125.781 21.7853C125.469 21.4601 125.217 21.0588 125.023 20.5814C124.829 20.0971 124.732 19.5021 124.732 18.7963C124.732 18.229 124.847 17.6755 125.075 17.1358C125.303 16.5961 125.639 16.1153 126.082 15.6932C126.524 15.2712 127.068 14.9356 127.711 14.6865C128.354 14.4305 129.091 14.3025 129.922 14.3025C130.385 14.3025 130.835 14.3406 131.271 14.4167C131.714 14.4859 132.132 14.5931 132.527 14.7384C132.921 14.8768 133.288 15.0463 133.627 15.2469C133.973 15.4407 134.281 15.6621 134.55 15.9112L133.679 17.5406Z" fill="url(#paint0_linear_9671_3973)"/>
<circle cx="139.262" cy="8.58993" r="3.72852" stroke="black" stroke-width="0.23063"/>
<path d="M136.373 7.78603V7.48573H138.47V7.78603H137.591V10.2812H137.252V7.78603H136.373ZM138.992 7.48573H139.396L140.346 9.80623H140.379L141.329 7.48573H141.733V10.2812H141.416V8.15731H141.389L140.516 10.2812H140.21L139.336 8.15731H139.309V10.2812H138.992V7.48573Z" fill="black"/>
<defs>
<linearGradient id="paint0_linear_9671_3973" x1="70.3732" y1="21.0898" x2="135.645" y2="21.0898" gradientUnits="userSpaceOnUse">
<stop/>
<stop offset="0.14" stop-color="#243394"/>
<stop offset="1" stop-color="#D10408"/>
</linearGradient>
</defs>
</svg>
